<svg width="108" height="108" viewBox="0 0 108 108" xmlns="http://www.w3.org/2000/svg"><g fill="none" fill-rule="evenodd"><path d="M45.626 108l-.153-.064C32.33 102.53 19.87 87.716 19.746 87.567c-4.297-5.325-7.965-11.286-10.91-17.727-3.102-6.79-5.42-14.162-6.891-21.92l-.032.026-.448-2.757C.207 37.452-.243 29.233.124 20.762v-.04c-.013-1.81.514-4.314 5.223-5.183l.03-.005 5.178-.905c5.697-1.012 10.209-1.815 17.63-2.382-2.043-6.054-8.997-8.911-9.069-8.94l-4.693-1.853 4.929-1.12A13.59 13.59 0 0 1 22.35 0c3.195 0 6.517 1.082 9.873 3.214 3.088 1.963 6.146 4.785 9.092 8.387l.875-.024c1.097-.03 2.23-.059 3.368-.084H45.629c19.836.43 25.889 1.508 35.05 3.137 1.45.258 3.237.577 5.164.902l.024.004c4.725.872 5.254 3.378 5.243 5.186l-.001.097c.672 15.444-1.32 29.69-5.924 42.32l-.113.309c22.931 9.01 22.938 20.427 22.917 21.108.011.28.075 2.183-.31 3.005l-.15.32-.328-.14c-2.895-1.234-4.067-1.585-4.08-1.59l-.041-.013c-.04-.018-.972-.417-2.644-.911a38.507 38.507 0 0 0-3-.76c-2.265-.343-4.84-.508-7.82-.7-4.178-.27-8.904-.576-14.208-1.482l-.097.142c-8.59 12.51-18.554 19.636-25.4 23.41l-.18.1v.005l-1.794.984-.007-.043c-.427.217-.819.41-1.19.586l-1.114.531" fill="#FFFFFE"/><path d="M45.12 45.567c-.031-.005-.05-.005-.05-.005.019.002.036.002.05.005M35.717 57.382l.016-.007c-.021 0-.016.007-.016.007" fill="#FFFFFE"/><path d="M43.894 14.68h.004a69.082 69.082 0 0 1 2.328 3.495c8.58 13.76 16.785 18.655 23.243 23.977 9.178 7.566 10.033 16.885 10.033 16.885.764.372 1.456.761 2.06 1.14.325.197.592.375.824.546l.15.107c-.001.002-.002.002-.002.005.598.465.975.903 1.624 1.602 4.553-12.499 6.53-26.543 5.855-41.964v-.126c.01-1.413-.287-2.977-3.964-3.656a588.951 588.951 0 0 1-5.2-.907c-9.127-1.625-15.159-2.698-34.957-3.128-1.175.027-2.294.054-3.372.084.452.619.918 1.278 1.374 1.94M3.156 44.719c.433-.365 1.248-1.067 2.518-2.024l.004.003c10.47-7.902 19.326-7.068 19.326-7.068-.457-1.575.466-1.644.904-2.45-.472-.869-.717-1.44-.738-1.499l-2.12-5.06 1.508 1.55-.778-4.263 1.082 1.519-.347-4.33 1.002 1.208.16-3.243 1.036 2.054c.04-.122.088-.249.132-.38l1.141-2.943.37 1.325c.417-2.477.687-4.159.494-5.618-7.535.561-12.075 1.365-17.845 2.387-1.613.286-3.316.588-5.226.909-3.667.674-3.963 2.233-3.953 3.642l.001.085c-.383 8.712.117 16.774 1.329 24.196" fill="#1A1919"/><path d="M72.837 72.123c.104.005.206.005.311.011.167.009.334.018.509.03.227.015.46.04.69.06h.003a59.238 59.238 0 0 1 5.142.675l.14.052c8.75 1.639 18.268 5.47 26.667 10.774 0 0 .461-11.233-23.199-20.097 0 0-.025-.065-.087-.18-1.118-1.834-3.426-3.157-5.135-4.034 0 0-.838-9.503-9.967-17.03-6.42-5.294-14.582-10.161-23.114-23.85a67.843 67.843 0 0 0-2.799-4.15h.013c-.581-.792-1.07-1.42-1.475-1.924C33.575 3.69 26.107-.321 19.7 1.137c0 0 9.104 3.596 10.452 11.807h-.005c.08.553.156 1.17.164 1.962h.005c.003.35-.009.708-.034 1.073l-.013.23c0 .01 0 .019-.002.028l-.003.034c-.07.902-.22 1.988-.498 3.344l-.368-1.32-1.132 2.933c-.046.13-.09.258-.131.38l-1.03-2.048-.159 3.234-.994-1.206.343 4.318-1.075-1.513.773 4.25-1.498-1.546 2.106 5.046c.022.06.264.628.733 1.496-.435.804-1.854 1.554-.565 3.198 0 0-9.92-1.648-20.927 7.397-.005.004-.01.01-.016.013-.171.14-.344.286-.516.432v-.005a125.22 125.22 0 0 0-1.908 1.603C6.403 62.651 12.9 75.794 20.973 85.806l.005.014-.002-.01c.006.007.015.016.02.024-.068-1.406.106-5.027 4.974-7.36-.06.09-.111.178-.168.267-1.577 2.964-1.975 5.453-1.836 7.439.456 3.115 2.338 5.02 2.338 5.02-.259-.77-.443-2.157.086-3.935.753-3.061 2.622-4.697 3.237-5.167.05-.049.09-.098.139-.148-.007.018-.015.04-.021.061a9.86 9.86 0 0 1 .087-.061c-.93 2.126-1.272 4.57-1.143 6.802.35 2.303 1.541 5.041 4.467 8.092-.328-1.184-.395-3.874.27-5.645-.131 1.77 1.132 6.757 3.728 8.921 2.095 1.747 3.118 2.481 6.286 4.282.567.293 1.137.59 1.702.86l.436.207.434-.207c.61-.293 1.274-.623 1.98-.993-.076-.68-.213-2.122-.213-2.122-.796-19.868 11.862-23.992 11.862-23.992s2.895 2.774 5.292-.781c1.163.358 2.13.652 3.15.932a68.84 68.84 0 0 0 .84.225c.122.032.243.061.364.092 1.421.359 3.09.726 5.546 1.207 9.3 1.678 17.01 1.436 22.803 2.319.983.204 2.016.461 3.156.797 1.844.545 2.828.978 2.828.978-6.875-6.01-17.164-8.843-25.192-10.231a193.391 193.391 0 0 0-11.708-1.399c.386-.058 2.51-.36 6.117-.171" fill="#1A1919"/><path d="M67.936 80.06a70.896 70.896 0 0 1-2.423-.748c-2.929 3.483-5.39.905-5.39.905s-10.814 3.082-10.8 22.173c.043.718.143 1.364.283 2.235 6.498-3.68 16.102-10.706 24.378-23.094-2.09-.357-4.368-.973-6.048-1.472" fill="#1A1919"/><path d="M27.213 3.375c2.197.931 3.886 2.476 4.864 3.308 4.07 3.453 7.224 7.346 10.635 12.795 7.325 11.719 14.529 17.291 20.32 21.778 1.213.936 2.351 1.82 3.44 2.719 4.217 3.467 6.534 7.427 7.9 10.438.978 2.038 1.403 3.853 1.297 3.677-.281-.438-2.557-2.883-2.557-2.883.074.092 1.203 2.35 1.314 3.765 0 0-1.341-2.088-3.053-3.22 0 0 1.015 1.598 1.242 2.783 0 0-1.108-1.329-2.843-2.298 0 0 .464 1.004.791 2.046 0 0-1.319-1.32-2.33-1.243 0 0 .672 1.262.9 1.842 0 0-1.137-1.076-2.174-.887 0 0 .293.627.467 1.16 0 0 .189.678-.085.751 0 0-5.61-5.64-5.833-6.49-1.737-6.528-9.094-9.216-9.094-9.216-2.21-1.014-5.547-1.241-8.278-2.265-3.333-.99-8.09-2.501-11.33-5.574-2.867-2.717-4.174-5.629-4.174-5.629s.581.54 1.548 1.076c0 0-1.677-1.97-2.04-3.741 0 0 .606.76 1.972 1.501 0 0-1.767-2.42-1.724-3.726 0 0 .496 1.038 1.8 1.541 0 0-1.265-2.332-1.173-4.036 0 0 .721 1.283 1.558 1.607 0 0-1.059-1.519-.264-3.37 0 0 .284.9.77 1.038 0 0-.423-2.19 1.224-2.558.257-1.25.371-2.28.522-3.676.536-5.002-1.819-9.485-5.612-13.013M31.866 91.969c-.065-.066-1.984-5.058 1.389-12.81 0 0-3.572 1.512-6.548 5.059 0 0 .397-2.957 4.3-8.213 0 0-8.663 2.102-10.251 6.505-6.232-8.936-9.91-18.19-11.975-25.554-.05-.167-.105-.333-.154-.5.01.02.02.04.026.06-.931-3.393-1.517-6.367-1.85-8.694 0 0 8.84-9.249 21.51-8.06 0 0 .691 1.565 1.432 2.468-10.363 7.123-4.956 32.462 25.53 29.9-12.829.722-16.267 4.138-18.318 6.044-2.048 1.904-4.826 7.357-5.091 13.795" fill="#67A5CD"/><path d="M45.463 103.781s-4.627-2.099-7.6-5.511c-2.974-3.411-1.228-8.583-1.228-8.583-.501-.006-1.406 1.596-1.406 1.596-.225-1.983 1.603-3.951 1.603-3.951-.897.074-1.966 1.09-1.966 1.09.409-1.648 2.308-3.515 2.308-3.515-1.395.116-2.181.964-2.181.964.349-1.252 2.756-3.062 2.756-3.062-1.532.321-2.342.877-2.342.877.872-1.584 3.063-2.986 3.063-2.986-1.086.234-1.81.588-1.81.588s1.792-2.951 4.503-4.215c2.711-1.262 4.596-2.008 8.587-2.81 3.99-.802 6.265-.906 6.27-.84.072.84 1.338 3.364 1.807 4.181-13.276 7.774-12.564 21.993-12.364 26.177M86.287 66.99C101.3 72.84 104.598 81 104.598 81s-.536-.46-.75-.687C95.07 70.965 83.364 68.074 80.915 67.52c-.158-.031-1.095-.195-1.153-.173-1.712.845-3.913 1.126-4.66.313-.6-.652-.284-2.19 1.967-2.604 2.571-.468 6.951 1.053 9.219 1.935M53.69 69.92c-1.5.111-5.676.315-9.234-.442-4.241-.9-11.271-4.037-11.547-7.134-.229-2.553 1.84-2.871 1.84-2.871-1.36-.363-2.434-.144-2.434-.144.886-.542 3.62-1.05 3.62-1.05-.74-.324-2.404-.47-2.404-.47 1.887-.541 3.325-.613 3.325-.613-1.022-.29-1.26-.332-1.317-.332 1.037-.326 2.694-.898 5.082-.575 2.396.33 8.044 2.064 8.044 2.064-6.569-2.495-9.826-5.042-9.626-7.454.208-2.54 3.756-1.977 3.756-1.977-1.068-.58-2.401-.978-2.401-.978 2.072-.505 4.14-.326 4.14-.326-1.11-.76-2.844-1.227-2.844-1.227 2.174-.363 5.02.359 5.02.359-1.2-1.023-1.68-1.169-1.807-1.188 6.921.497 10.824 4.646 12.073 7.134-3.926.062-6.959 3.723-6.959 7.582 0 3.631 2.635 7.199 6.214 7.668a6.94 6.94 0 0 1-2.575.21 6.922 6.922 0 0 1-5.228-3.3c.662 2.463 2.654 4.441 5.262 5.064" fill="#FFFFFE"/><path d="M59.146 66.6l-.021.013c-.495.049-1.02.043-1.5.043-3.226 0-5.751-3.223-5.751-6.4 0-3.173 2.476-6.256 5.702-6.256.172 0 .234-.001.329.01.02.109.074.243.149.391-2.472.179-4.535 1.82-5.265 4.063l-.02.064a5.736 5.736 0 0 0-.262 1.729c0 3.248 2.686 5.894 5.987 5.894.35 0 .695-.035 1.034-.093-.131.177-.263.355-.382.541" fill="#FFFFFE"/><path d="M59.587 59.062a1.684 1.684 0 0 1-.641-.119 1.74 1.74 0 0 1-1.12-1.613c0-.767.507-1.416 1.206-1.642.329.409.709.86 1.111 1.33.347.386.713.784 1.085 1.178-.074.062-.155.11-.239.154-.28.323-.821.693-1.402.712M69.012 68.107c-3.106 0-7.252 1.264-7.252 4.178 0 .892.235 1.731.65 2.465l-.455.344c-.784-1.054-1.577-1.854-1.577-4.067 0-3.613 3.118-6.533 6.959-6.533.345 0 .678.022 1.008.063-.001.011.025.014.059.02 1.877-3.55 5.235-3.96 6.977-3.798 2.38.213 3.798.805 5.396 2.797.107.134-.667.088-.811.02-1.478-.702-2.952-.922-4.752-.922-3.035 0-4.414 1.15-5.896 3.548-.59.952-.268 1.885-.306 1.885M65.48 62.754c-.585.132-1.149.317-1.7.527a7.33 7.33 0 0 0 .525-1.435c.018-.081.035-.167.051-.252.501.508.902.922 1.124 1.16" fill="#FFFFFE"/></g></svg>